<svg width="32" height="32" xmlns="http://www.w3.org/2000/svg">

 <title/>
 <g>
  <title>background</title>
  <rect fill="none" id="canvas_background" height="402" width="582" y="-1" x="-1"/>
 </g>
 <g>
  <title>Layer 1</title>
  <path fill="#fa5b13" id="svg_1" d="m22.82,20.55l-0.63,-0.18a7.3,7.3 0 0 1 -0.9,-0.29a1.51,1.51 0 0 1 -1,-1.46c2.84,-3 2.8,-5.67 2.74,-8.47c0,-0.38 0,-0.76 0,-1.15a7.1,7.1 0 0 0 -7,-7a7.1,7.1 0 0 0 -7.03,7c0,0.39 0,0.77 0,1.15c-0.06,2.8 -0.1,5.45 2.74,8.47a1.53,1.53 0 0 1 -1.06,1.48c-0.28,0.11 -0.58,0.19 -0.86,0.27l-0.63,0.18c-3.58,1.19 -7.19,4.45 -7.19,8.45a1,1 0 0 0 2,0c0,-3 3,-5.61 5.82,-6.55c0.16,-0.06 0.33,-0.1 0.52,-0.15a9.6,9.6 0 0 0 1.08,-0.3a3.4,3.4 0 0 0 2,-2a6,6 0 0 0 0.83,0.34l-1,1a1,1 0 0 0 -0.18,1.16l0.93,1.64l-1,4.66a1,1 0 0 0 2,0.4l1,-5a1.36,1.36 0 0 0 0,-0.2a1.36,1.36 0 0 0 0,0.2l1,5a1,1 0 0 0 1,0.8l0.2,0a1,1 0 0 0 0.8,-1.2l-0.93,-4.66l0.84,-1.69a1,1 0 0 0 -0.18,-1.16l-1,-1a5.14,5.14 0 0 0 0.84,-0.35a3.42,3.42 0 0 0 2,2a9.62,9.62 0 0 0 1.15,0.38c0.18,0.05 0.36,0.09 0.52,0.15c2.76,0.92 5.76,3.53 5.76,6.53a1,1 0 0 0 2,0c0,-4 -3.61,-7.26 -7.18,-8.45zm-11.82,-10.37c0,-0.38 0,-0.78 0,-1.18a5,5 0 0 1 10,0c0,0.4 0,0.8 0,1.18c0,2.68 0.09,4.8 -2.47,7.36a3.58,3.58 0 0 1 -5.08,0c-2.55,-2.54 -2.51,-4.68 -2.45,-7.36zm5.12,13.37a1,1 0 0 0 -0.12,0.45a1,1 0 0 0 -0.11,-0.45l-0.67,-1.35l0.78,-0.79l0.78,0.79l-0.66,1.35z" class="cls-1"/>
 </g>
</svg>